<?xml version="1.0" encoding="UTF-8" standalone="no" ?>
<!DOCTYPE svg PUBLIC "-//W3C//DTD SVG 1.1//EN" "http://www.w3.org/Graphics/SVG/1.1/DTD/svg11.dtd">
<svg xmlns="http://www.w3.org/2000/svg" xmlns:xlink="http://www.w3.org/1999/xlink" version="1.1" width="350" height="350" viewBox="0 0 350 350" xml:space="preserve">
<desc>Created with Fabric.js 1.7.22</desc>
<defs>
</defs>
<g id="icon" style="stroke: none; stroke-width: 1; stroke-dasharray: none; stroke-linecap: butt; stroke-linejoin: miter; stroke-miterlimit: 10; fill: none; fill-rule: nonzero; opacity: 1;" transform="translate(-1.9444444444444287 -1.9444444444444287) scale(3.89 3.89)" >
	<path d="M 77.491 26.297 L 32.526 0.336 c -0.778 -0.449 -1.738 -0.448 -2.515 0.004 L 12.514 10.511 c -1.178 0.685 -1.176 2.388 0.005 3.069 l 43.273 27 l 22.011 -14.13 l -0.281 -0.171 L 77.491 26.297 z" style="stroke: none; stroke-width: 1; stroke-dasharray: none; stroke-linecap: butt; stroke-linejoin: miter; stroke-miterlimit: 10; fill: rgb(226,233,242); fill-rule: nonzero; opacity: 1;" transform=" matrix(1 0 0 1 0 0) " stroke-linecap="round" />
	<path d="M 55.984 41.741 c -0.02 -1.914 -1.033 -3.68 -2.674 -4.666 L 11.632 12.05 l -0.065 1.871 l 0.654 47.507 c 0.025 1.851 1.023 3.552 2.627 4.478 l 39.2 22.632 l 2.45 1.339 L 55.984 41.741 z" style="stroke: none; stroke-width: 1; stroke-dasharray: none; stroke-linecap: butt; stroke-linejoin: miter; stroke-miterlimit: 10; fill: rgb(145,161,185); fill-rule: nonzero; opacity: 1;" transform=" matrix(1 0 0 1 0 0) " stroke-linecap="round" />
	<path d="M 76.608 26.463 L 57.535 37.551 c -1.079 0.627 -1.744 1.782 -1.744 3.03 v 48.202 c 0 0.937 1.015 1.521 1.825 1.05 l 19.817 -11.52 c 0.619 -0.36 1 -1.022 1 -1.738 V 27.513 C 78.433 26.577 77.418 25.992 76.608 26.463 z" style="stroke: none; stroke-width: 1; stroke-dasharray: none; stroke-linecap: butt; stroke-linejoin: miter; stroke-miterlimit: 10; fill: rgb(211,220,232); fill-rule: nonzero; opacity: 1;" transform=" matrix(1 0 0 1 0 0) " stroke-linecap="round" />
	<path d="M 68.563 63.136 l 7.031 -7.707 c 0.192 -0.211 0.299 -0.485 0.299 -0.77 v -18.01 v -5.06 c 0 -0.618 -0.67 -1.003 -1.204 -0.693 l -14.92 8.673 c -0.352 0.205 -0.569 0.581 -0.569 0.988 v 5.795 v 16.59 c 0 0.666 0.568 1.192 1.232 1.14 l 7.375 -0.576 C 68.097 63.483 68.367 63.351 68.563 63.136 z" style="stroke: none; stroke-width: 1; stroke-dasharray: none; stroke-linecap: butt; stroke-linejoin: miter; stroke-miterlimit: 10; fill: rgb(187,201,220); fill-rule: nonzero; opacity: 1;" transform=" matrix(1 0 0 1 0 0) " stroke-linecap="round" />
	<path d="M 68.246 68.193 l -8.16 0.501 c -0.498 0.031 -0.886 0.443 -0.886 0.942 v 8.842 v 4.813 c 0 0.728 0.789 1.181 1.418 0.816 L 75.423 75.5 c 0.291 -0.169 0.469 -0.48 0.469 -0.816 v -5.91 v -6.872 c 0 -0.505 -0.616 -0.75 -0.964 -0.384 l -6.056 6.383 C 68.708 68.074 68.484 68.179 68.246 68.193 z" style="stroke: none; stroke-width: 1; stroke-dasharray: none; stroke-linecap: butt; stroke-linejoin: miter; stroke-miterlimit: 10; fill: rgb(187,201,220); fill-rule: nonzero; opacity: 1;" transform=" matrix(1 0 0 1 0 0) " stroke-linecap="round" />
	<ellipse cx="68.472" cy="72.049" rx="0.922" ry="1.439" style="stroke: none; stroke-width: 1; stroke-dasharray: none; stroke-linecap: butt; stroke-linejoin: miter; stroke-miterlimit: 10; fill: rgb(236,241,248); fill-rule: nonzero; opacity: 1;" transform=" matrix(1 0 0 1 0 0) "/>
	<ellipse cx="68.464" cy="76.56" rx="0.564" ry="0.88" style="stroke: none; stroke-width: 1; stroke-dasharray: none; stroke-linecap: butt; stroke-linejoin: miter; stroke-miterlimit: 10; fill: rgb(236,241,248); fill-rule: nonzero; opacity: 1;" transform=" matrix(1 0 0 1 0 0) "/>
	<path d="M 73.04 35.394 l -10.014 5.821 c -0.487 0.283 -0.786 0.803 -0.786 1.366 v 2.776 c 0 0.273 0.296 0.443 0.531 0.306 l 10.007 -5.817 c 0.489 -0.284 0.789 -0.807 0.789 -1.372 v -2.777 C 73.568 35.427 73.275 35.258 73.04 35.394 z" style="stroke: none; stroke-width: 1; stroke-dasharray: none; stroke-linecap: butt; stroke-linejoin: miter; stroke-miterlimit: 10; fill: rgb(236,241,248); fill-rule: nonzero; opacity: 1;" transform=" matrix(1 0 0 1 0 0) " stroke-linecap="round" />
	<path d="M 73.04 42.156 l -10.014 5.821 c -0.487 0.283 -0.786 0.803 -0.786 1.366 v 2.776 c 0 0.273 0.296 0.443 0.531 0.306 l 10.007 -5.817 c 0.489 -0.284 0.789 -0.807 0.789 -1.372 V 42.46 C 73.568 42.189 73.275 42.02 73.04 42.156 z" style="stroke: none; stroke-width: 1; stroke-dasharray: none; stroke-linecap: butt; stroke-linejoin: miter; stroke-miterlimit: 10; fill: rgb(236,241,248); fill-rule: nonzero; opacity: 1;" transform=" matrix(1 0 0 1 0 0) " stroke-linecap="round" />
	<path d="M 73.04 48.918 L 63.027 54.74 c -0.487 0.283 -0.786 0.803 -0.786 1.366 v 2.776 c 0 0.273 0.296 0.443 0.531 0.306 l 10.007 -5.817 c 0.489 -0.284 0.789 -0.807 0.789 -1.372 v -2.777 C 73.568 48.951 73.275 48.782 73.04 48.918 z" style="stroke: none; stroke-width: 1; stroke-dasharray: none; stroke-linecap: butt; stroke-linejoin: miter; stroke-miterlimit: 10; fill: rgb(236,241,248); fill-rule: nonzero; opacity: 1;" transform=" matrix(1 0 0 1 0 0) " stroke-linecap="round" />
</g>
</svg>