<?xml version="1.0" encoding="UTF-8" standalone="no" ?>
<!DOCTYPE svg PUBLIC "-//W3C//DTD SVG 1.1//EN" "http://www.w3.org/Graphics/SVG/1.1/DTD/svg11.dtd">
<svg xmlns="http://www.w3.org/2000/svg" xmlns:xlink="http://www.w3.org/1999/xlink" version="1.1" width="350" height="350" viewBox="0 0 350 350" xml:space="preserve">
<desc>Created with Fabric.js 1.7.22</desc>
<defs>
</defs>
<g id="icon" style="stroke: none; stroke-width: 1; stroke-dasharray: none; stroke-linecap: butt; stroke-linejoin: miter; stroke-miterlimit: 10; fill: none; fill-rule: nonzero; opacity: 1;" transform="translate(-1.9444444444444287 -1.9444444444444287) scale(3.89 3.89)" >
	<path d="M 74.245 12.087 l -0.051 0.028 L 54.712 0.867 c -2.009 -1.16 -4.485 -1.156 -6.491 0.01 L 20.108 17.22 l -5.13 3.253 l 22.485 15.82 l 37.256 -23.917 L 74.245 12.087 z" style="stroke: none; stroke-width: 1; stroke-dasharray: none; stroke-linecap: butt; stroke-linejoin: miter; stroke-miterlimit: 10; fill: rgb(226,233,242); fill-rule: nonzero; opacity: 1;" transform=" matrix(1 0 0 1 0 0) " stroke-linecap="round" />
	<path d="M 37.9 46.936 l 0.758 0.438 l -0.868 -9.117 c -0.034 -3.24 -1.748 -6.229 -4.525 -7.897 l -16.514 -9.915 c -1.117 -0.671 -2.539 0.134 -2.539 1.437 v 7.526 v 1.745 v 6.465 v 1.061 v 5.781 v 2.429 V 51.3 v 2.429 v 3.728 v 3.114 v 3.728 v 2.429 v 6.842 c 0 1.304 0.696 2.51 1.825 3.162 l 22.62 13.06 l -0.689 -7.239 l 0.689 0.398 l -0.62 -6.516 l 0.62 0.358 l -0.689 -7.24 l 0.689 0.398 l -0.689 -7.239 l 0.689 0.398 l -0.827 -8.687 l 0.827 0.477 L 37.9 46.936 z" style="stroke: none; stroke-width: 1; stroke-dasharray: none; stroke-linecap: butt; stroke-linejoin: miter; stroke-miterlimit: 10; fill: rgb(145,161,185); fill-rule: nonzero; opacity: 1;" transform=" matrix(1 0 0 1 0 0) " stroke-linecap="round" />
	<path d="M 72.699 12.397 L 40.414 31.164 c -1.827 1.062 -2.951 3.016 -2.951 5.129 v 1.733 v 3.409 v 2.385 v 1.703 v 0.03 v 3.409 v 3.069 v 1.019 v 0.714 v 3.409 v 1.701 v 1.733 v 0.655 v 2.754 v 1.701 v 1.733 V 68.1 v 2.754 v 1.016 v 1.733 v 1.339 v 2.07 v 1.701 v 1.733 v 0.655 v 2.754 v 4.088 c 0 1.585 1.719 2.574 3.089 1.777 L 74.095 70.22 c 1.048 -0.609 1.693 -1.73 1.693 -2.942 v -4.154 v -2.688 v -0.639 v -3.203 v -0.311 v -2.004 v -1.323 v -2.83 v -0.373 v -2.315 v -0.639 v -3.203 v -0.311 v -2.688 v -0.639 v -3.203 v -0.311 v -3.327 v -0.729 V 29.91 v -1.68 v -3.327 v -0.045 V 21.7 v -0.995 v -3.327 v -3.203 C 75.788 12.589 74.069 11.6 72.699 12.397 z" style="stroke: none; stroke-width: 1; stroke-dasharray: none; stroke-linecap: butt; stroke-linejoin: miter; stroke-miterlimit: 10; fill: rgb(211,220,232); fill-rule: nonzero; opacity: 1;" transform=" matrix(1 0 0 1 0 0) " stroke-linecap="round" />
	<path d="M 70.082 54.941 L 43.053 70.654 c -1.53 0.889 -2.471 2.525 -2.471 4.294 v 1.451 v 2.854 v 3.422 c 0 1.327 1.439 2.155 2.586 1.488 l 28.083 -16.325 c 0.877 -0.51 1.417 -1.448 1.417 -2.463 v -3.478 v -2.786 v -2.682 C 72.669 55.102 71.23 54.274 70.082 54.941 z" style="stroke: none; stroke-width: 1; stroke-dasharray: none; stroke-linecap: butt; stroke-linejoin: miter; stroke-miterlimit: 10; fill: rgb(226,233,242); fill-rule: nonzero; opacity: 1;" transform=" matrix(1 0 0 1 0 0) " stroke-linecap="round" />
	<ellipse cx="43.452999999999996" cy="80.032" rx="1.223" ry="0.922" style="stroke: none; stroke-width: 1; stroke-dasharray: none; stroke-linecap: butt; stroke-linejoin: miter; stroke-miterlimit: 10; fill: rgb(145,161,185); fill-rule: nonzero; opacity: 1;" transform=" matrix(0.5595 -0.8289 0.8289 0.5595 -47.1949 71.2746) "/>
	<ellipse cx="47.913" cy="77.502" rx="1.223" ry="0.922" style="stroke: none; stroke-width: 1; stroke-dasharray: none; stroke-linecap: butt; stroke-linejoin: miter; stroke-miterlimit: 10; fill: rgb(104,150,215); fill-rule: nonzero; opacity: 1;" transform=" matrix(0.5595 -0.8289 0.8289 0.5595 -43.1261 73.8569) "/>
	<ellipse cx="52.223" cy="75.082" rx="1.223" ry="0.922" style="stroke: none; stroke-width: 1; stroke-dasharray: none; stroke-linecap: butt; stroke-linejoin: miter; stroke-miterlimit: 10; fill: rgb(145,161,185); fill-rule: nonzero; opacity: 1;" transform=" matrix(0.5595 -0.8289 0.8289 0.5595 -39.224 76.3557) "/>
	<ellipse cx="56.592999999999996" cy="72.532" rx="1.223" ry="0.922" style="stroke: none; stroke-width: 1; stroke-dasharray: none; stroke-linecap: butt; stroke-linejoin: miter; stroke-miterlimit: 10; fill: rgb(145,161,185); fill-rule: nonzero; opacity: 1;" transform=" matrix(0.5595 -0.8289 0.8289 0.5595 -35.1881 78.8623) "/>
	<ellipse cx="69.953" cy="64.962" rx="1.223" ry="0.922" style="stroke: none; stroke-width: 1; stroke-dasharray: none; stroke-linecap: butt; stroke-linejoin: miter; stroke-miterlimit: 10; fill: rgb(104,150,215); fill-rule: nonzero; opacity: 1;" transform=" matrix(0.5595 -0.8289 0.8289 0.5595 -23.0264 86.5962) "/>
	<ellipse cx="43.452999999999996" cy="75.092" rx="1.223" ry="0.922" style="stroke: none; stroke-width: 1; stroke-dasharray: none; stroke-linecap: butt; stroke-linejoin: miter; stroke-miterlimit: 10; fill: rgb(104,150,215); fill-rule: nonzero; opacity: 1;" transform=" matrix(0.5595 -0.8289 0.8289 0.5595 -43.0948 69.0954) "/>
	<ellipse cx="47.913" cy="72.55199999999999" rx="1.223" ry="0.922" style="stroke: none; stroke-width: 1; stroke-dasharray: none; stroke-linecap: butt; stroke-linejoin: miter; stroke-miterlimit: 10; fill: rgb(104,150,215); fill-rule: nonzero; opacity: 1;" transform=" matrix(0.5595 -0.8289 0.8289 0.5595 -39.0259 71.6777) "/>
	<ellipse cx="56.592999999999996" cy="67.592" rx="1.223" ry="0.922" style="stroke: none; stroke-width: 1; stroke-dasharray: none; stroke-linecap: butt; stroke-linejoin: miter; stroke-miterlimit: 10; fill: rgb(145,161,185); fill-rule: nonzero; opacity: 1;" transform=" matrix(0.5595 -0.8289 0.8289 0.5595 -31.0879 76.6831) "/>
	<ellipse cx="69.953" cy="60.012" rx="1.223" ry="0.922" style="stroke: none; stroke-width: 1; stroke-dasharray: none; stroke-linecap: butt; stroke-linejoin: miter; stroke-miterlimit: 10; fill: rgb(104,150,215); fill-rule: nonzero; opacity: 1;" transform=" matrix(0.5595 -0.8289 0.8289 0.5595 -18.9263 84.417) "/>
	<path d="M 70.082 37.941 L 43.053 53.654 c -1.53 0.889 -2.471 2.525 -2.471 4.294 v 1.451 v 2.854 v 3.422 c 0 1.327 1.439 2.155 2.586 1.488 l 28.083 -16.325 c 0.877 -0.51 1.417 -1.448 1.417 -2.463 v -3.478 v -2.786 v -2.682 C 72.669 38.102 71.23 37.274 70.082 37.941 z" style="stroke: none; stroke-width: 1; stroke-dasharray: none; stroke-linecap: butt; stroke-linejoin: miter; stroke-miterlimit: 10; fill: rgb(226,233,242); fill-rule: nonzero; opacity: 1;" transform=" matrix(1 0 0 1 0 0) " stroke-linecap="round" />
	<ellipse cx="43.452999999999996" cy="63.032" rx="1.223" ry="0.922" style="stroke: none; stroke-width: 1; stroke-dasharray: none; stroke-linecap: butt; stroke-linejoin: miter; stroke-miterlimit: 10; fill: rgb(145,161,185); fill-rule: nonzero; opacity: 1;" transform=" matrix(0.5595 -0.8289 0.8289 0.5595 -33.1044 63.7855) "/>
	<ellipse cx="52.223" cy="58.081999999999994" rx="1.223" ry="0.922" style="stroke: none; stroke-width: 1; stroke-dasharray: none; stroke-linecap: butt; stroke-linejoin: miter; stroke-miterlimit: 10; fill: rgb(145,161,185); fill-rule: nonzero; opacity: 1;" transform=" matrix(0.5595 -0.8289 0.8289 0.5595 -25.1335 68.8666) "/>
	<ellipse cx="56.592999999999996" cy="55.532" rx="1.223" ry="0.922" style="stroke: none; stroke-width: 1; stroke-dasharray: none; stroke-linecap: butt; stroke-linejoin: miter; stroke-miterlimit: 10; fill: rgb(145,161,185); fill-rule: nonzero; opacity: 1;" transform=" matrix(0.5595 -0.8289 0.8289 0.5595 -21.0976 71.3733) "/>
	<ellipse cx="69.953" cy="47.961999999999996" rx="1.223" ry="0.922" style="stroke: none; stroke-width: 1; stroke-dasharray: none; stroke-linecap: butt; stroke-linejoin: miter; stroke-miterlimit: 10; fill: rgb(104,150,215); fill-rule: nonzero; opacity: 1;" transform=" matrix(0.5595 -0.8289 0.8289 0.5595 -8.936 79.1072) "/>
	<ellipse cx="43.452999999999996" cy="58.092" rx="1.223" ry="0.922" style="stroke: none; stroke-width: 1; stroke-dasharray: none; stroke-linecap: butt; stroke-linejoin: miter; stroke-miterlimit: 10; fill: rgb(104,150,215); fill-rule: nonzero; opacity: 1;" transform=" matrix(0.5595 -0.8289 0.8289 0.5595 -29.0043 61.6063) "/>
	<ellipse cx="47.913" cy="55.552" rx="1.223" ry="0.922" style="stroke: none; stroke-width: 1; stroke-dasharray: none; stroke-linecap: butt; stroke-linejoin: miter; stroke-miterlimit: 10; fill: rgb(104,150,215); fill-rule: nonzero; opacity: 1;" transform=" matrix(0.5595 -0.8289 0.8289 0.5595 -24.9354 64.1886) "/>
	<ellipse cx="52.223" cy="53.132" rx="1.223" ry="0.922" style="stroke: none; stroke-width: 1; stroke-dasharray: none; stroke-linecap: butt; stroke-linejoin: miter; stroke-miterlimit: 10; fill: rgb(145,161,185); fill-rule: nonzero; opacity: 1;" transform=" matrix(0.5595 -0.8289 0.8289 0.5595 -21.0333 66.6874) "/>
	<ellipse cx="56.592999999999996" cy="50.592" rx="1.223" ry="0.922" style="stroke: none; stroke-width: 1; stroke-dasharray: none; stroke-linecap: butt; stroke-linejoin: miter; stroke-miterlimit: 10; fill: rgb(145,161,185); fill-rule: nonzero; opacity: 1;" transform=" matrix(0.5595 -0.8289 0.8289 0.5595 -16.9974 69.194) "/>
	<ellipse cx="69.953" cy="43.012" rx="1.223" ry="0.922" style="stroke: none; stroke-width: 1; stroke-dasharray: none; stroke-linecap: butt; stroke-linejoin: miter; stroke-miterlimit: 10; fill: rgb(104,150,215); fill-rule: nonzero; opacity: 1;" transform=" matrix(0.5595 -0.8289 0.8289 0.5595 -4.8358 76.9279) "/>
	<path d="M 70.082 20.941 L 43.053 36.654 c -1.53 0.889 -2.471 2.525 -2.471 4.294 v 1.451 v 2.854 v 3.422 c 0 1.327 1.439 2.155 2.586 1.488 l 28.083 -16.325 c 0.877 -0.51 1.417 -1.448 1.417 -2.463 v -3.478 v -2.786 v -2.682 C 72.669 21.102 71.23 20.274 70.082 20.941 z" style="stroke: none; stroke-width: 1; stroke-dasharray: none; stroke-linecap: butt; stroke-linejoin: miter; stroke-miterlimit: 10; fill: rgb(226,233,242); fill-rule: nonzero; opacity: 1;" transform=" matrix(1 0 0 1 0 0) " stroke-linecap="round" />
	<ellipse cx="43.452999999999996" cy="46.032" rx="1.223" ry="0.922" style="stroke: none; stroke-width: 1; stroke-dasharray: none; stroke-linecap: butt; stroke-linejoin: miter; stroke-miterlimit: 10; fill: rgb(145,161,185); fill-rule: nonzero; opacity: 1;" transform=" matrix(0.5595 -0.8289 0.8289 0.5595 -19.0139 56.2965) "/>
	<ellipse cx="47.913" cy="43.501999999999995" rx="1.223" ry="0.922" style="stroke: none; stroke-width: 1; stroke-dasharray: none; stroke-linecap: butt; stroke-linejoin: miter; stroke-miterlimit: 10; fill: rgb(104,150,215); fill-rule: nonzero; opacity: 1;" transform=" matrix(0.5595 -0.8289 0.8289 0.5595 -14.9451 58.8788) "/>
	<ellipse cx="52.223" cy="41.081999999999994" rx="1.223" ry="0.922" style="stroke: none; stroke-width: 1; stroke-dasharray: none; stroke-linecap: butt; stroke-linejoin: miter; stroke-miterlimit: 10; fill: rgb(145,161,185); fill-rule: nonzero; opacity: 1;" transform=" matrix(0.5595 -0.8289 0.8289 0.5595 -11.043 61.3775) "/>
	<ellipse cx="56.592999999999996" cy="38.532" rx="1.223" ry="0.922" style="stroke: none; stroke-width: 1; stroke-dasharray: none; stroke-linecap: butt; stroke-linejoin: miter; stroke-miterlimit: 10; fill: rgb(145,161,185); fill-rule: nonzero; opacity: 1;" transform=" matrix(0.5595 -0.8289 0.8289 0.5595 -7.0071 63.8842) "/>
	<ellipse cx="69.953" cy="30.962" rx="1.223" ry="0.922" style="stroke: none; stroke-width: 1; stroke-dasharray: none; stroke-linecap: butt; stroke-linejoin: miter; stroke-miterlimit: 10; fill: rgb(104,150,215); fill-rule: nonzero; opacity: 1;" transform=" matrix(0.5595 -0.8289 0.8289 0.5595 5.1545 71.6181) "/>
	<ellipse cx="43.452999999999996" cy="41.092" rx="1.223" ry="0.922" style="stroke: none; stroke-width: 1; stroke-dasharray: none; stroke-linecap: butt; stroke-linejoin: miter; stroke-miterlimit: 10; fill: rgb(104,150,215); fill-rule: nonzero; opacity: 1;" transform=" matrix(0.5595 -0.8289 0.8289 0.5595 -14.9138 54.1173) "/>
	<ellipse cx="47.913" cy="38.552" rx="1.223" ry="0.922" style="stroke: none; stroke-width: 1; stroke-dasharray: none; stroke-linecap: butt; stroke-linejoin: miter; stroke-miterlimit: 10; fill: rgb(104,150,215); fill-rule: nonzero; opacity: 1;" transform=" matrix(0.5595 -0.8289 0.8289 0.5595 -10.8449 56.6995) "/>
	<ellipse cx="56.592999999999996" cy="33.592" rx="1.223" ry="0.922" style="stroke: none; stroke-width: 1; stroke-dasharray: none; stroke-linecap: butt; stroke-linejoin: miter; stroke-miterlimit: 10; fill: rgb(145,161,185); fill-rule: nonzero; opacity: 1;" transform=" matrix(0.5595 -0.8289 0.8289 0.5595 -2.9069 61.705) "/>
	<ellipse cx="69.953" cy="26.012" rx="1.223" ry="0.922" style="stroke: none; stroke-width: 1; stroke-dasharray: none; stroke-linecap: butt; stroke-linejoin: miter; stroke-miterlimit: 10; fill: rgb(104,150,215); fill-rule: nonzero; opacity: 1;" transform=" matrix(0.5595 -0.8289 0.8289 0.5595 9.2547 69.4389) "/>
</g>
</svg>